<?xml version="1.0" encoding="UTF-8"?>
<!DOCTYPE svg PUBLIC "-//W3C//DTD SVG 1.1//EN" "http://www.w3.org/Graphics/SVG/1.1/DTD/svg11.dtd">
<!-- Creator: CorelDRAW 2017 -->
<svg xmlns="http://www.w3.org/2000/svg" xml:space="preserve" width="29.6432mm" height="26.743mm" version="1.1" style="shape-rendering:geometricPrecision; text-rendering:geometricPrecision; image-rendering:optimizeQuality; fill-rule:evenodd; clip-rule:evenodd"
viewBox="0 0 1278 1153"
 xmlns:xlink="http://www.w3.org/1999/xlink">
 <defs>
  <style type="text/css">
   <![CDATA[
    .str0 {stroke:#1F1B20;stroke-width:8.61972}
    .fil0 {fill:black}
   ]]>
  </style>
 </defs>
 <g id="Слой_x0020_1">
  <metadata id="CorelCorpID_0Corel-Layer"/>
  <path class="fil0 str0" d="M577 1099l0 0zm74 -43c-7,6 -25,19 -26,19 0,0 -5,2 -10,6 -11,7 -25,14 -39,18 -4,1 -8,2 -9,2 -1,0 -4,-4 -8,-15l-10 -24c-4,-9 -4,-10 -5,-12 -1,-1 -1,-3 -1,-3 0,-1 -1,-4 -3,-7l-6 -13c-2,-3 -3,-7 -3,-8 0,-1 0,-2 -1,-3 -1,-1 -2,-3 -3,-5 -1,-2 -4,-8 -6,-14 -2,-5 -4,-10 -4,-10 0,0 -2,-5 -5,-11l-8 -17c-6,-12 -32,-64 -34,-67 0,-1 -2,-4 -4,-7 -5,-9 -19,-30 -28,-43 -15,-19 -36,-39 -50,-45l-5 -2 4 -4 10 -8c28,-23 76,-69 90,-89l9 -11c10,-11 9,-11 20,-26 16,-22 42,-61 42,-63 0,-1 0,-1 1,-1 1,0 7,-10 7,-11 0,0 4,-6 8,-13 4,-7 8,-13 8,-13 0,0 3,-5 6,-10 3,-5 6,-9 6,-10 0,0 2,-3 4,-7 2,-3 4,-7 4,-7 0,0 1,-3 3,-6 4,-7 8,-14 14,-25l9 -17c5,-9 41,-81 47,-94l6 -13 6 -13 5 -11 4 -9 7 -15 6 -14 10 -25c5,-12 10,-25 12,-29 6,-13 10,-22 14,-31l3 -8c1,-3 2,-6 2,-6 0,0 1,-2 2,-4l5 -12 4 -10 4 -10 4 -10 6 -14 7 -17 4 -9c1,-2 5,-10 8,-18 19,-39 32,-54 48,-54 10,0 17,4 28,15 14,14 33,49 53,95l3 6c1,1 1,3 1,3 0,1 1,4 3,8 4,8 5,12 8,20l4 10 3 7 2 6c3,7 7,19 11,28 13,35 13,35 16,42l3 9c2,6 7,20 8,24 1,2 3,9 10,27 2,5 3,9 4,10 1,1 1,3 1,4 0,1 0,3 1,3 1,1 2,4 3,7l3 9c1,3 6,17 8,24l5 14 17 47 8 23c3,9 6,18 6,19 0,1 1,3 2,5l4 13 9 27c3,9 6,18 6,19l2 5c1,1 3,8 6,16 5,15 9,26 10,30 1,2 4,11 10,27l4 11 4 11 4 11 8 21 9 22 4 10 4 9 6 14c6,14 7,17 8,20 1,1 1,3 1,3 0,1 1,4 3,7 2,3 6,13 9,22l9 21 6 15c4,10 6,15 12,27 6,13 3,11 -17,-8 -24,-23 -44,-42 -55,-51l-12 -9c-8,-7 -35,-22 -48,-27 -10,-4 -11,-4 -15,-6 -18,-5 -19,-5 -42,-5 -19,0 -24,0 -33,3 -25,6 -40,13 -61,26 -32,21 -57,45 -115,111l-5 5 -11 13 -31 36c-33,38 -69,73 -97,95zm-107 -517l-11 18c-7,12 -10,16 -12,16 -1,0 -11,-7 -21,-15l-22 -17 -17 -13 -7 -5c-3,-2 -7,-5 -7,-5 0,0 -4,-3 -9,-7 -12,-9 -27,-21 -28,-22 0,-1 8,-13 11,-16l5 -6c10,-12 27,-32 39,-43 22,-21 42,-35 65,-43l26 -10c17,-7 25,-10 31,-14 13,-7 45,-37 63,-58l9 -11c0,0 2,-3 4,-5 2,-3 4,-6 5,-7 1,-1 4,-5 7,-9 5,-7 7,-9 7,-6 0,1 -11,29 -17,42l-3 7 -4 9c-2,4 -3,7 -3,7 0,0 -3,6 -6,13 -3,7 -6,12 -6,13 0,2 -44,90 -52,105l-9 17c-6,11 -9,17 -10,18 0,1 -3,5 -6,10 -3,5 -7,13 -10,17 -3,4 -5,8 -5,8 0,0 -1,3 -3,5l-4 7zm2 607l0 0zm21 -1c20,-5 31,-9 49,-18 16,-8 38,-21 40,-24 0,0 2,-2 4,-3 4,-2 25,-19 31,-24l11 -10c11,-9 52,-51 67,-68 10,-12 23,-26 45,-52l29 -33 13 -14c53,-58 86,-82 124,-89 11,-2 33,-2 42,0 9,2 23,7 24,8 1,1 2,1 2,1 3,0 42,24 45,29 0,0 3,3 6,5 7,5 20,18 43,40 37,36 69,63 93,78 8,5 9,6 15,5 8,0 14,-3 18,-9 3,-5 4,-15 1,-21 -6,-14 -16,-34 -22,-46l-6 -13c-2,-4 -3,-7 -3,-8 0,0 -2,-4 -4,-9 -2,-5 -4,-9 -4,-9 0,0 -1,-4 -3,-7l-4 -10 -4 -9 -3 -8 -3 -7 -3 -7 -2 -5 -3 -7 -4 -9c-1,-3 -2,-6 -2,-6 0,0 -1,-2 -2,-5l-3 -8c-1,-2 -2,-4 -2,-5 0,0 -1,-3 -2,-6l-5 -13 -4 -10c-3,-8 -11,-28 -17,-42l-7 -20c-2,-5 -5,-12 -9,-23l-6 -16c-2,-6 -10,-28 -13,-36l-8 -23 -11 -32 -11 -32c-3,-9 -6,-18 -6,-19l-2 -5c-1,-1 -3,-8 -6,-16 -4,-13 -11,-34 -19,-55l-5 -14c-2,-7 -7,-21 -8,-24l-3 -8 -3 -8 -3 -7 -6 -18 -8 -22c-2,-5 -4,-10 -4,-12l-3 -7c-3,-8 -7,-21 -8,-23l-4 -11c-3,-9 -4,-10 -6,-17l-3 -9c-1,-3 -2,-7 -3,-9l-3 -7 -2 -6 -2 -6 -3 -7 -8 -21 -8 -21 -3 -6 -3 -7 -3 -7c-1,-4 -4,-10 -8,-18l-5 -12c-5,-11 -18,-38 -22,-43 -2,-3 -4,-6 -4,-7 0,-1 -12,-18 -17,-25 -12,-15 -27,-27 -42,-32 -6,-2 -21,-5 -28,-5 -6,0 -20,4 -27,8 -12,6 -31,23 -43,38 -5,7 -19,27 -23,34 -30,53 -96,149 -127,186 -16,19 -43,44 -54,51 -4,2 -15,7 -29,12l-15 6 -6 2c-14,5 -28,12 -42,21 -7,5 -14,9 -15,10l-12 10c-20,17 -49,49 -68,75 -3,5 -7,10 -8,11 -1,1 -2,3 -3,4 -1,2 -8,6 -16,9l-14 6 -5 2c-1,1 -3,1 -3,1 -1,0 -4,1 -7,3l-12 5 -10 4 -57 24c-30,12 -57,23 -60,25 -3,2 -7,3 -7,3 -1,0 -2,0 -3,1 -4,2 -15,7 -16,7 -1,0 -2,0 -3,1l-5 2 -15 6 -5 2 -7 3 -7 3c-1,1 -3,1 -3,1 -1,0 -4,1 -7,3l-11 5 -10 4c-3,1 -19,8 -36,15 -17,7 -33,14 -35,15 -6,4 -8,9 -8,16 0,10 3,14 18,25l38 27 29 21 25 18 43 31 43 31 25 18 25 18c34,25 32,23 41,23 6,0 9,-1 12,-2 23,-13 34,-17 50,-17 9,0 12,0 17,3 15,7 31,24 49,52 2,4 5,7 5,8 1,1 1,2 1,2 0,0 2,3 4,7 2,3 4,7 4,7 0,0 1,2 2,4 4,5 26,49 34,67l8 18c3,6 5,10 5,11 0,0 2,4 4,9 2,5 4,9 4,9 0,0 1,3 3,7 3,6 3,8 6,14l2 6 6 14 3 7 3 7 3 8c1,3 2,6 2,6 0,0 1,2 2,4l5 12 4 11 2 5c6,14 8,17 15,19 6,2 7,2 21,-1zm-263 -349c0,0 -3,2 -7,4 -3,2 -7,3 -8,3 -2,0 -37,-25 -44,-30 -1,-1 -11,-8 -22,-16l-21 -15c-4,-3 -33,-24 -75,-54 -10,-7 -19,-14 -20,-15 -1,-1 -3,-2 -3,-2 0,0 -2,-1 -3,-2 -1,-1 -9,-7 -18,-13 -9,-6 -16,-11 -16,-12 0,0 2,-2 4,-2l9 -4c3,-1 6,-2 6,-2 1,0 3,-1 13,-6 3,-1 6,-2 6,-2 0,0 2,-1 4,-2l21 -9 15 -6 5 -2c1,-1 3,-1 3,-1 1,0 4,-1 7,-3 5,-2 61,-25 116,-48l9 -4c4,-2 7,-3 8,-3 1,0 2,0 3,-1l7 -3 15 -6c3,-1 6,-2 6,-2 0,0 2,-1 5,-2l8 -3c2,-1 4,-2 5,-2 0,0 3,-1 6,-2 7,-3 11,-5 16,-7 2,-1 5,-2 5,-2 4,-3 8,-1 38,21l33 25 30 23c15,11 27,21 27,22 0,4 -38,53 -58,73 -26,28 -56,56 -79,73l-11 9c-8,7 -41,29 -43,29 -1,0 -1,0 -1,1z"/>
 </g>
</svg>
